<svg width="512" height="512" viewBox="0 0 512 512" fill="none" xmlns="http://www.w3.org/2000/svg">
  <g clipPath="url(#checklist_clip)">
    <path d="M472.46 253.06C472.46 265.06 472.38 276.2 472.22 286.63C471.56 329.95 469.54 361.26 466.22 393.49C463.378 420.794 451.231 446.29 431.818 465.698C412.404 485.106 386.905 497.246 359.6 500.08L358.77 500.16C325.56 503.62 320.23 506.35 250.2 506.35H244.2C174.2 506.35 168.85 503.62 135.64 500.16L134.81 500.07C107.521 497.226 82.0399 485.085 62.64 465.683C43.2402 446.282 31.1016 420.799 28.26 393.51C24.1 353.51 22 314.94 22 253.06C22 191.18 24.11 152.61 28.27 112.61C30.629 89.8856 39.4538 68.314 53.6984 50.4519C67.9431 32.5899 87.0102 19.1863 108.64 11.83V12.28C117.315 9.25304 126.312 7.23966 135.45 6.28L136.28 6.19C169.49 2.73 180.79 0 250.82 0C320.85 0 326.18 2.73 359.39 6.19L360.22 6.28C368.925 7.19322 377.503 9.06112 385.8 11.85C386.92 12.23 388.04 12.63 389.14 13.05C410.13 20.7519 428.537 34.1908 442.266 51.8376C455.995 69.4845 464.496 90.6306 466.8 112.87C466.8 112.87 472.46 173.12 472.46 253.06Z" fill="#01786A"/>
    <path d="M135.45 6.28C126.312 7.23966 117.315 9.25304 108.64 12.28V11.83C87.0084 19.1848 67.9391 32.5876 53.6926 50.4498C39.4461 68.312 30.6198 89.8844 28.26 112.61C24.1 152.61 22 191.19 22 253.06C22 308.54 23.69 345.29 27.05 381.12C58.8261 393.265 92.5622 399.471 126.58 399.43C280.48 399.43 405.23 274.67 405.23 120.78C405.281 82.9883 397.615 45.5842 382.7 10.86C375.374 8.60562 367.844 7.07168 360.22 6.28L359.39 6.19C326.18 2.73 320.85 0 250.82 0C180.79 0 169.49 2.73 136.28 6.19L135.45 6.28Z" fill="#2DA093"/>
    <path d="M388.3 282.72C365.626 282.72 343.462 289.444 324.609 302.04C305.757 314.637 291.063 332.541 282.386 353.489C273.71 374.437 271.439 397.487 275.863 419.725C280.286 441.963 291.205 462.39 307.237 478.423C323.27 494.455 343.697 505.374 365.935 509.797C388.173 514.221 411.223 511.95 432.171 503.274C453.119 494.597 471.023 479.903 483.62 461.051C496.216 442.198 502.94 420.034 502.94 397.36C502.937 366.956 490.858 337.799 469.36 316.3C447.861 294.802 418.704 282.723 388.3 282.72Z" fill="#01C7B1"/>
    <path d="M453.14 378.79L384.44 450.93C382.569 452.896 380.32 454.463 377.829 455.539C375.337 456.615 372.654 457.176 369.94 457.19H369.85C367.153 457.19 364.483 456.649 361.999 455.597C359.515 454.546 357.268 453.006 355.39 451.07L318.93 413.51C315.208 409.674 313.162 404.516 313.243 399.171C313.323 393.826 315.524 388.732 319.36 385.01C323.196 381.288 328.354 379.242 333.699 379.322C339.044 379.403 344.138 381.604 347.86 385.44L369.71 408L424 351C427.718 347.266 432.75 345.137 438.018 345.067C443.287 344.997 448.373 346.993 452.189 350.626C456.004 354.26 458.246 359.243 458.433 364.509C458.62 369.775 456.738 374.905 453.19 378.8L453.14 378.79Z" fill="white"/>
    <path d="M202.61 107.07H368.75C375.065 107.07 381.121 109.579 385.586 114.044C390.051 118.509 392.56 124.565 392.56 130.88C392.56 137.195 390.051 143.251 385.586 147.716C381.121 152.181 375.065 154.69 368.75 154.69H202.61C196.295 154.69 190.239 152.181 185.774 147.716C181.309 143.251 178.8 137.195 178.8 130.88C178.8 124.565 181.309 118.509 185.774 114.044C190.239 109.579 196.295 107.07 202.61 107.07ZM202.61 256.57C196.295 256.57 190.239 254.061 185.774 249.596C181.309 245.131 178.8 239.075 178.8 232.76C178.8 226.445 181.309 220.389 185.774 215.924C190.239 211.459 196.295 208.95 202.61 208.95H262C268.315 208.95 274.371 211.459 278.836 215.924C283.301 220.389 285.81 226.445 285.81 232.76C285.81 239.075 283.301 245.131 278.836 249.596C274.371 254.061 268.315 256.57 262 256.57H202.61ZM124.61 154.69C118.295 154.69 112.239 152.181 107.774 147.716C103.309 143.251 100.8 137.195 100.8 130.88C100.8 124.565 103.309 118.509 107.774 114.044C112.239 109.579 118.295 107.07 124.61 107.07C130.925 107.07 136.981 109.579 141.446 114.044C145.911 118.509 148.42 124.565 148.42 130.88C148.42 137.195 145.911 143.251 141.446 147.716C136.981 152.181 130.925 154.69 124.61 154.69ZM124.61 256.57C118.295 256.57 112.239 254.061 107.774 249.596C103.309 245.131 100.8 239.075 100.8 232.76C100.8 226.445 103.309 220.389 107.774 215.924C112.239 211.459 118.295 208.95 124.61 208.95C130.925 208.95 136.981 211.459 141.446 215.924C145.911 220.389 148.42 226.445 148.42 232.76C148.42 239.075 145.911 245.131 141.446 249.596C136.981 254.061 130.925 256.57 124.61 256.57Z" fill="white"/>
  </g>
  <defs>
    <clipPath id="checklist_clip">
      <rect width="512" height="512" fill="white"/>
    </clipPath>
  </defs>
</svg>
